<svg viewBox="0 0 384 81" xmlns="http://www.w3.org/2000/svg">
        <path d="M0 0.5V16.5V32.5V48.5V64.5V80.5H16H56V64.5H16V48.5H48V32.5H16V16.5H56V0.5H16H0Z"></path>
        <path d="M136 0.5H112V16.5H136V80.5H152V16.5H176V0.5H152H136Z"></path>
        <path d="M384 64.5H368V80.5H384V64.5Z"></path>
        <path d="M272 0.5C249.9 0.5 232 18.4 232 40.5C232 62.6 249.9 80.5 272 80.5C280.2 80.5 287.7 78.1 294.1 73.9L300.7 80.5L312 69.2L305.4 62.6C309.6 56.3 312 48.7 312 40.5C312 18.4 294.1 0.5 272 0.5ZM272 64.5C258.8 64.5 248 53.7 248 40.5C248 27.3 258.8 16.5 272 16.5C285.2 16.5 296 27.3 296 40.5C296 44.2 295.2 47.7 293.7 50.8L283.3 40.5L272 51.8L282.3 62.1C279.2 63.7 275.7 64.5 272 64.5Z"></path>
      </svg>